<svg id="Layer_2" data-name="Layer 2" xmlns="http://www.w3.org/2000/svg" viewBox="0 0 512 512">
  <title>icon</title>
  <g>
    <path d="M256,503A247,247,0,0,1,81.34,81.34,247,247,0,1,1,430.66,430.66,245.38,245.38,0,0,1,256,503Z" style="fill: #32db64"/>
    <path d="M256,18a238.07,238.07,0,0,1,92.63,457.3A238.07,238.07,0,0,1,163.37,36.7,236.49,236.49,0,0,1,256,18m0-18C114.62,0,0,114.62,0,256S114.62,512,256,512,512,397.38,512,256,397.38,0,256,0h0Z" style="fill: #29b552"/>
  </g>
  <circle cx="256" cy="256" r="147.6" style="fill: #fff"/>
  <polygon points="199.23 157.32 199.23 354.68 340.12 256 199.23 157.32"/>
</svg>
