<?xml version="1.0" encoding="UTF-8" standalone="no"?><!-- Generator: Gravit.io --><svg xmlns="http://www.w3.org/2000/svg" xmlns:xlink="http://www.w3.org/1999/xlink" style="isolation:isolate" viewBox="0 0 512 512" width="512pt" height="512pt"><defs><clipPath id="_clipPath_eiRzI30SLiHq6NjQ9lpgjwSY11K7k9Rn"><rect width="512" height="512"/></clipPath></defs><g clip-path="url(#_clipPath_eiRzI30SLiHq6NjQ9lpgjwSY11K7k9Rn)"><rect x="0" y="0" width="512" height="512" transform="matrix(1,0,0,1,0,0)" fill="rgb(255,255,255)"/><linearGradient id="_lgradient_0" x1="0.28300813078229664" y1="0.9362248639504661" x2="0.2786970054923733" y2="0.12348580896290973" gradientTransform="matrix(246,0,0,319.699,122,96.151)" gradientUnits="userSpaceOnUse"><stop offset="0%" stop-opacity="1" style="stop-color:rgb(134,97,242)"/><stop offset="32.17391304347826%" stop-opacity="1" style="stop-color:rgb(100,170,240)"/><stop offset="50%" stop-opacity="1" style="stop-color:rgb(98,174,240)"/><stop offset="100%" stop-opacity="1" style="stop-color:rgb(232,103,113)"/></linearGradient><path d=" M 360.469 96.302 C 356.857 96.994 205.23 126.428 202.003 127.043 C 198.774 127.657 195.777 129.809 195.777 133.191 L 195.777 317.71 C 195.777 318.94 195.701 323.243 193.933 326.702 C 191.55 331.235 187.4 334.54 181.56 336.462 C 179.024 337.307 175.566 338.076 171.492 338.997 C 152.971 343.147 122 350.218 122 378.807 C 122 402.707 139.215 413.466 154.047 415.311 C 155.661 415.542 157.506 415.849 159.504 415.849 C 164.653 415.849 187.17 413.312 198.852 405.704 C 207.305 400.171 217.372 389.258 217.372 368.969 L 217.372 205.661 C 217.372 202.741 219.447 200.205 222.291 199.666 L 339.105 176.074 C 342.947 175.305 346.483 178.225 346.483 182.068 L 346.483 282.666 C 346.483 285.817 346.329 289.505 344.561 292.964 C 342.179 297.499 338.028 300.803 332.111 302.724 C 329.575 303.569 325.348 304.338 321.275 305.26 C 302.754 309.411 271.783 316.404 271.783 344.993 C 271.783 370.891 291.303 381.266 303.906 382.111 C 308.902 382.419 312.514 382.342 318.815 381.42 C 325.117 380.497 336.875 377.193 346.867 371.429 C 360.623 363.514 368 350.833 368 334.387 L 368 102.22 C 367.924 98.838 365.08 95.379 360.469 96.302 L 360.469 96.302 L 360.469 96.302 Z " fill="url(#_lgradient_0)"/><g/></g></svg>