<?xml version="1.0" standalone="no"?>
<svg xmlns="http://www.w3.org/2000/svg"
xmlns:xlink="http://www.w3.org/1999/xlink"
style="isolation:isolate" viewBox="0 0 512 512" width="512"
height="512">
  <defs>
    <clipPath id="_clipPath_ZZjh2IpzEACxwljcKGVve0e7uzp5gTpw">
      <rect width="512" height="512" />
    </clipPath>
  </defs>
  <g clip-path="url(#_clipPath_ZZjh2IpzEACxwljcKGVve0e7uzp5gTpw)">
    <mask id="_mask_k1uvOSFhpdGqNXwKG8V53XNnxWidPVeT">
      <circle vector-effect="non-scaling-stroke" cx="255.99999"
      cy="255.99999" r="227.99999000000003" fill="white"
      stroke="none" />
    </mask>
    <circle vector-effect="non-scaling-stroke" cx="255.99999"
    cy="255.99999" r="227.99999000000003" fill="rgb(255,255,255)"
    mask="url(#_mask_k1uvOSFhpdGqNXwKG8V53XNnxWidPVeT)"
    stroke-width="40" stroke="rgb(254,40,81)"
    stroke-linejoin="miter" stroke-linecap="butt"
    stroke-miterlimit="4" />
    <path d="M 352.211 105.418 C 348.805 106.07 205.833 133.824 202.79 134.404 C 199.746 134.983 196.92 137.012 196.92 140.201 L 196.92 314.188 C 196.92 315.347 196.848 319.405 195.181 322.666 C 192.934 326.941 189.021 330.057 183.514 331.869 C 181.123 332.666 177.862 333.391 174.021 334.26 C 156.557 338.173 127.354 344.84 127.354 371.797 C 127.354 394.333 143.586 404.478 157.572 406.217 C 159.094 406.435 160.833 406.725 162.717 406.725 C 167.572 406.725 188.804 404.333 199.819 397.159 C 207.79 391.942 217.282 381.652 217.282 362.521 L 217.282 208.535 C 217.282 205.781 219.239 203.39 221.92 202.882 L 332.066 180.636 C 335.689 179.911 339.023 182.665 339.023 186.288 L 339.023 281.144 C 339.023 284.115 338.878 287.593 337.211 290.854 C 334.965 295.13 331.051 298.246 325.472 300.057 C 323.08 300.854 319.095 301.579 315.254 302.448 C 297.79 306.362 268.587 312.956 268.587 339.913 C 268.587 364.333 286.993 374.116 298.877 374.913 C 303.587 375.203 306.993 375.13 312.935 374.261 C 318.877 373.391 329.964 370.275 339.385 364.84 C 352.356 357.377 359.312 345.42 359.312 329.913 L 359.312 110.998 C 359.24 107.809 356.559 104.548 352.211 105.418 L 352.211 105.418 L 352.211 105.418 Z"
    fill="rgb(0,0,0)" />
  </g>
</svg>
