<svg width="1500" height="1500" viewBox="0 0 1500 1500" fill="none" xmlns="http://www.w3.org/2000/svg">
<path d="M1500 0H0V1500H1500V0Z" fill="var(--ion-color-medium)"/>
<path d="M1056.06 282.135C1045.48 284.162 601.26 370.395 591.806 372.196C582.346 373.995 573.565 380.3 573.565 390.208V930.791C573.565 934.395 573.343 947.001 568.163 957.135C561.182 970.415 549.023 980.098 531.914 985.729C524.484 988.204 514.354 990.457 502.418 993.155C448.157 1005.31 357.422 1026.03 357.422 1109.79C357.422 1179.81 407.856 1211.33 451.31 1216.73C456.038 1217.41 461.443 1218.31 467.297 1218.31C482.382 1218.31 548.35 1210.88 582.574 1188.59C607.339 1172.38 636.832 1140.4 636.832 1080.96V602.522C636.832 593.968 642.911 586.538 651.243 584.959L993.472 515.842C1004.73 513.589 1015.09 522.144 1015.09 533.402V828.123C1015.09 837.354 1014.64 848.159 1009.46 858.293C1002.48 871.579 990.316 881.259 972.981 886.887C965.552 889.362 953.168 891.615 941.235 894.316C886.975 906.478 796.239 926.965 796.239 1010.72C796.239 1086.59 853.427 1116.99 890.35 1119.47C904.986 1120.37 915.568 1120.14 934.028 1117.44C952.491 1114.74 986.938 1105.06 1016.21 1088.17C1056.51 1064.98 1078.12 1027.83 1078.12 979.649V299.473C1077.9 289.564 1069.57 279.431 1056.06 282.135Z" fill="#76757A"/>
</svg>
