<svg width="1024" height="1024" viewBox="0 0 1024 1024" fill="none" xmlns="http://www.w3.org/2000/svg">
<rect width="1024" height="1024" fill="white"/>
<path d="M707.734 238.259C700.892 239.441 413.663 289.71 407.551 290.76C401.433 291.809 395.756 295.484 395.756 301.26V616.393C395.756 618.493 395.612 625.842 392.264 631.749C387.749 639.492 379.888 645.136 368.825 648.418C364.021 649.861 357.47 651.175 349.753 652.748C314.669 659.835 256 671.912 256 720.737C256 761.556 288.611 779.931 316.707 783.081C319.764 783.476 323.259 784 327.044 784C336.798 784 379.452 779.667 401.581 766.674C417.594 757.224 436.664 738.586 436.664 703.935V425.028C436.664 420.041 440.594 415.711 445.982 414.789L667.264 374.498C674.542 373.185 681.24 378.172 681.24 384.735V556.542C681.24 561.923 680.948 568.223 677.599 574.13C673.087 581.875 665.223 587.518 654.015 590.799C649.211 592.242 641.204 593.554 633.488 595.129C598.404 602.219 539.736 614.162 539.736 662.988C539.736 707.218 576.712 724.937 600.586 726.38C610.05 726.906 616.893 726.775 628.828 725.2C640.767 723.624 663.04 717.982 681.968 708.136C708.026 694.619 722 672.962 722 644.875V248.366C721.856 242.59 716.469 236.682 707.734 238.259Z" fill="#FE2851"/>
</svg>
