<svg width="1054" height="1055" viewBox="0 0 1054 1055" fill="none" xmlns="http://www.w3.org/2000/svg">
<g filter="url(#filter0_d_19:36)">
<path fill-rule="evenodd" clip-rule="evenodd" d="M1035 329.916C1035 317.759 1035 305.601 1034.93 293.444C1034.87 283.204 1034.75 272.965 1034.47 262.728C1033.87 240.418 1032.56 217.916 1028.59 195.854C1024.56 173.474 1017.99 152.645 1007.64 132.31C997.456 112.324 984.158 94.0347 968.291 78.1776C952.428 62.3218 934.134 49.0334 914.14 38.858C893.785 28.5012 872.933 21.931 850.528 17.9095C828.464 13.9465 805.956 12.6329 783.646 12.0302C773.402 11.7543 763.158 11.6363 752.912 11.5729C740.749 11.4996 728.585 11.5045 716.421 11.5045L575.19 11H469.56L330.827 11.5058C318.64 11.5058 306.453 11.4996 294.266 11.5729C284 11.6363 273.736 11.7543 263.473 12.0302C241.11 12.6342 218.551 13.949 196.435 17.9145C174 21.9372 153.117 28.5037 132.735 38.8543C112.698 49.0284 94.3647 62.3193 78.4679 78.1776C62.5737 94.0335 49.2506 112.318 39.0517 132.302C28.6688 152.646 22.0837 173.487 18.0499 195.88C14.0782 217.932 12.7622 240.428 12.157 262.728C11.8811 272.966 11.7618 283.204 11.6996 293.444C11.6251 305.603 11 320.707 11 332.864L11.0037 469.675L11 576.437L11.6313 716.153C11.6313 728.327 11.6263 740.5 11.6996 752.674C11.7618 762.93 11.8811 773.183 12.1582 783.434C12.7622 805.773 14.0807 828.306 18.0561 850.399C22.0887 872.809 28.6713 893.667 39.0467 914.029C49.2469 934.043 62.5724 952.357 78.4679 968.235C94.3634 984.112 112.692 997.419 132.725 1007.61C153.12 1017.98 174.012 1024.56 196.461 1028.59C218.567 1032.55 241.119 1033.87 263.473 1034.47C273.736 1034.75 284 1034.87 294.267 1034.93C306.454 1035 318.64 1035 330.827 1035L470.814 1035H576.706L716.421 1035C728.585 1035 740.749 1035 752.912 1034.93C763.158 1034.87 773.402 1034.75 783.646 1034.47C805.965 1033.87 828.48 1032.55 850.554 1028.58C872.946 1024.55 893.787 1017.98 914.132 1007.61C934.129 997.424 952.427 984.114 968.291 968.235C984.156 952.359 997.453 934.048 1007.63 914.037C1017.99 893.666 1024.57 872.797 1028.59 850.372C1032.56 828.29 1033.87 805.764 1034.47 783.434C1034.75 773.182 1034.87 762.929 1034.93 752.674C1035.01 740.5 1035 728.327 1035 716.153C1035 716.153 1034.99 578.904 1034.99 576.437V469.563C1034.99 467.741 1035 329.916 1035 329.916Z" fill="white"/>
</g>
<path d="M718.734 250.259C711.892 251.441 424.663 301.71 418.551 302.76C412.433 303.809 406.756 307.484 406.756 313.26V628.393C406.756 630.493 406.612 637.842 403.264 643.749C398.749 651.492 390.888 657.136 379.825 660.418C375.021 661.861 368.47 663.175 360.753 664.748C325.669 671.835 267 683.912 267 732.737C267 773.556 299.611 791.931 327.707 795.081C330.764 795.476 334.259 796 338.044 796C347.798 796 390.452 791.667 412.581 778.674C428.594 769.224 447.664 750.586 447.664 715.935V437.028C447.664 432.041 451.594 427.711 456.982 426.789L678.264 386.498C685.542 385.185 692.24 390.172 692.24 396.735V568.542C692.24 573.923 691.948 580.223 688.599 586.13C684.087 593.875 676.223 599.518 665.015 602.799C660.211 604.242 652.204 605.554 644.488 607.129C609.404 614.219 550.736 626.162 550.736 674.988C550.736 719.218 587.712 736.937 611.586 738.38C621.05 738.906 627.893 738.775 639.828 737.2C651.767 735.624 674.04 729.982 692.968 720.136C719.026 706.619 733 684.962 733 656.875V260.366C732.856 254.59 727.469 248.682 718.734 250.259Z" fill="#FE2851"/>
<defs>
<filter id="filter0_d_19:36" x="0" y="0" width="1054" height="1054" filterUnits="userSpaceOnUse" color-interpolation-filters="sRGB">
<feFlood flood-opacity="0" result="BackgroundImageFix"/>
<feColorMatrix in="SourceAlpha" type="matrix" values="0 0 0 0 0 0 0 0 0 0 0 0 0 0 0 0 0 0 127 0" result="hardAlpha"/>
<feOffset dx="4" dy="4"/>
<feGaussianBlur stdDeviation="7.5"/>
<feColorMatrix type="matrix" values="0 0 0 0 0 0 0 0 0 0 0 0 0 0 0 0 0 0 0.3 0"/>
<feBlend mode="normal" in2="BackgroundImageFix" result="effect1_dropShadow_19:36"/>
<feBlend mode="normal" in="SourceGraphic" in2="effect1_dropShadow_19:36" result="shape"/>
</filter>
</defs>
</svg>
