<svg width="512" height="512" viewBox="0 0 512 512" fill="none" xmlns="http://www.w3.org/2000/svg">
<path d="M436.244 32.2123C430.606 33.182 193.92 74.4285 188.883 75.2903C183.842 76.1507 179.164 79.1663 179.164 83.9056V342.476C179.164 344.199 179.045 350.229 176.286 355.076C172.566 361.429 166.088 366.06 156.972 368.753C153.013 369.937 147.615 371.015 141.256 372.306C112.345 378.121 64 388.03 64 428.092C64 461.584 90.8722 476.661 114.025 479.246C116.544 479.57 119.424 480 122.543 480C130.58 480 165.729 476.445 183.964 465.784C197.159 458.03 212.873 442.737 212.873 414.306V185.459C212.873 181.367 216.112 177.814 220.552 177.058L402.896 143.998C408.893 142.921 414.412 147.013 414.412 152.398V293.368C414.412 297.783 414.172 302.952 411.412 307.799C407.694 314.154 401.214 318.784 391.978 321.476C388.019 322.66 381.421 323.737 375.063 325.029C346.153 330.846 297.808 340.646 297.808 380.708C297.808 416.999 328.278 431.538 347.951 432.722C355.749 433.154 361.388 433.046 371.223 431.754C381.061 430.461 399.415 425.831 415.012 417.753C436.485 406.662 448 388.892 448 365.846V40.5053C447.881 35.766 443.442 30.9189 436.244 32.2123Z" fill="#FE2851"/>
</svg>
