<svg width="16" height="16" viewBox="0 0 16 16" fill="none" xmlns="http://www.w3.org/2000/svg">
<path d="M13.6326 1.00663C13.4564 1.03694 6.06 2.32589 5.90259 2.35282C5.74507 2.37971 5.59888 2.47395 5.59888 2.62205V10.7024C5.59888 10.7562 5.59517 10.9447 5.50893 11.0961C5.39268 11.2946 5.19024 11.4394 4.90537 11.5235C4.78166 11.5605 4.61298 11.5942 4.41424 11.6346C3.51078 11.8163 2 12.1259 2 13.3779C2 14.4245 2.83976 14.8956 3.56327 14.9764C3.642 14.9866 3.732 15 3.82946 15C4.08063 15 5.17902 14.8889 5.74888 14.5557C6.16122 14.3134 6.65229 13.8355 6.65229 12.9471V5.7956C6.65229 5.66773 6.75351 5.55668 6.89224 5.53307L12.5905 4.49995C12.7779 4.46628 12.9504 4.59414 12.9504 4.76243V9.16775C12.9504 9.30573 12.9429 9.46724 12.8566 9.61871C12.7404 9.8173 12.538 9.96199 12.2493 10.0461C12.1256 10.0831 11.9194 10.1168 11.7207 10.1572C10.8173 10.3389 9.30649 10.6452 9.30649 11.8971C9.30649 13.0312 10.2587 13.4856 10.8735 13.5226C11.1172 13.5361 11.2934 13.5327 11.6007 13.4923C11.9081 13.4519 12.4817 13.3072 12.9691 13.0548C13.6401 12.7082 14 12.1529 14 11.4327V1.26579C13.9963 1.11769 13.8576 0.966215 13.6326 1.00663Z" fill="black"/>
</svg>
