<!DOCTYPE svg PUBLIC "-//W3C//DTD SVG 20010904//EN"
 "http://www.w3.org/TR/2001/REC-SVG-20010904/DTD/svg10.dtd"><svg version="1" xmlns="http://www.w3.org/2000/svg" width="512pt" height="512pt" viewBox="0 0 512 512"><metadata>Created by potrace 1.11, written by Peter Selinger 2001-2013</metadata><path d="M230.5 1.1c-3.8.4-8.7 1-10.7 1.3-2.1.3-5.5.8-7.5 1.2-7.9 1.1-29.2 6.6-39.3 10.1-22.4 7.7-39.8 16.4-61.5 30.9-29 19.4-58 50.3-76.7 81.9-7.5 12.7-22.4 47-24.2 55.6-.3 1.3-1 4-1.6 5.9-2.8 9-5.3 22.4-7.5 39-1.7 13.9-1.3 52 .8 65 2.5 15 2.7 15.9 5.3 26.4 12.9 50.8 39.6 94.5 79.9 130.7 11.6 10.3 35.9 26.8 51.2 34.7 24.1 12.4 55 22.3 79.8 25.6 2.2.3 6.3.9 9 1.3 6.6 1 47.1 1 56 0 22.4-2.4 48.5-9 68.7-17.2 10.8-4.5 29.6-13.9 34.7-17.4 1.5-1 3.3-2 4.1-2.3 2.5-.9 24.1-16.7 31-22.7 36.3-31.5 62.3-69.9 77-114.2 2.2-6.6 4.2-13.4 4.5-15.1.3-1.7.8-3.4 1-3.8 1-1.6 5.3-25.9 6.2-34.8 1.2-11.9.9-50.7-.5-60.2-8.6-58.6-33.7-109.2-73.7-148.5-12.4-12.1-15.5-14.9-25.1-22-4.9-3.7-9.7-7.3-10.7-8.1-.9-.8-1.9-1.4-2.1-1.4-.2 0-4.4-2.5-9.2-5.6-29.7-18.6-66.9-31.5-103.8-35.8C273.7.2 242-.1 230.5 1.1zm-9.8 128.2c34 23.8 64.7 45.3 68.3 47.8 3.6 2.5 25.6 18 49 34.3 23.4 16.3 43.5 30.5 44.8 31.4 1.2.9 5.8 4.2 10.2 7.2 4.4 3 8 5.7 8 6 0 .3-2.8 2.4-6.3 4.8-9.7 6.8-56.9 39.8-60.2 42.2-1.6 1.2-19.6 13.8-40 28-20.3 14.2-41.8 29.3-47.7 33.4-26.3 18.5-33.9 23.8-60.2 42.2-15.3 10.7-28.1 19.2-28.4 19-.4-.5-.7-323.6-.3-336.9.1-1.5.3-2.7.5-2.7.3 0 28.3 19.5 62.3 43.3z"/></svg>
